# xmcd
#
# Track frame offsets: 
#        150
#        15552
#        33210
#        54895
#        81624
#        110068
#        130064
#        166104
#        184664
#        214266
#        234533
#        261465
#        281272
#        302113
#        314837
#        332357
#
# Disc length: 4743 seconds
#
# Revision: 0
# Processed by: cddbd v1.5.2PL0 Copyright (c) Steve Scherf et al.
# Submitted via: ExactAudioCopy v0.95a5
#
DISCID=de128510
DTITLE=Various Artist - On the Road Again   1-rd Mile
DYEAR=2000
DGENRE=Blues
TTITLE0=BILL WYMAN'S RHYTHM KINGS - Anyway the Wind Blow
TTITLE1=VARGAS BLUES BAND - Coward's Knife
TTITLE2=JONNY LANG - Angel of Mercy
TTITLE3=OTIS RUSH - Ain't Enough Comin' In
TTITLE4=SAVOY BROWN - Bad Shape
TTITLE5=JOHN FOGERTY - Bad Bad Boy
TTITLE6=CRAIG ERICKSON - No Reply
TTITLE7=TAJ MAHAL - The Car of Your Dreams
TTITLE8=BERNARD ALLISON - I've Been Down
TTITLE9=ANTHONY GOMES - High Colorie Woman
TTITLE10=JULIAN SAS - Is This What They Call the Blues
TTITLE11=The GALES BROTHERS.Memphis - Worried Man
TTITLE12=LYNYRD SKYNYRD - Voodoo Lake
TTITLE13=JEFF HEALEY - Me and My Crazy Self
TTITLE14=LARRY McCRAY - Black Magic Woman
TTITLE15=ROBBEN FORD - Peace Love and Understanding
EXTD=
EXTT0=
EXTT1=
EXTT2=
EXTT3=
EXTT4=
EXTT5=
EXTT6=
EXTT7=
EXTT8=
EXTT9=
EXTT10=
EXTT11=
EXTT12=
EXTT13=
EXTT14=
EXTT15=
PLAYORDER=
